<?xml version="1.0" encoding="utf-8"?>
<!-- Generator: Adobe Illustrator 19.0.0, SVG Export Plug-In . SVG Version: 6.00 Build 0)  -->
<svg version="1.1" id="Layer_1" xmlns="http://www.w3.org/2000/svg" xmlns:xlink="http://www.w3.org/1999/xlink" x="0px" y="0px"
	 viewBox="0 0 202.1 195.8" style="enable-background:new 0 0 202.1 195.8;" xml:space="preserve">
<style type="text/css">
	.st0{fill:#F1F2F2;}
</style>
<path id="XMLID_1_" class="st0" d="M186,32.1L36.8,181.3c-3.5,3.5-9.3,3.5-12.9,0l0,0c-3.5-3.5-3.5-9.3,0-12.9L173.1,19.2
	c3.5-3.5,9.3-3.5,12.9,0l0,0C189.5,22.8,189.5,28.6,186,32.1z"/>
<path id="XMLID_2_" class="st0" d="M173.1,181.3L24,32.1c-3.5-3.5-3.5-9.3,0-12.9l0,0c3.5-3.5,9.3-3.5,12.9,0L186,168.4
	c3.5,3.5,3.5,9.3,0,12.9l0,0C182.5,184.8,176.7,184.8,173.1,181.3z"/>
</svg>
